<?xml version="1.0" standalone="no"?>
<!DOCTYPE svg PUBLIC "-//W3C//DTD SVG 20010904//EN"
 "http://www.w3.org/TR/2001/REC-SVG-20010904/DTD/svg10.dtd">
<svg version="1.0" xmlns="http://www.w3.org/2000/svg"
 width="500.000000pt" height="500.000000pt" viewBox="0 0 500.000000 500.000000"
 preserveAspectRatio="xMidYMid meet">
<metadata>
Created by potrace 1.16, written by Peter Selinger 2001-2019
</metadata>
<g transform="translate(0.000000,500.000000) scale(0.100000,-0.100000)"
fill="#000000" stroke="none">
<path d="M378 2537 c-64 -56 -117 -107 -117 -114 -2 -32 26 -16 125 72 60 52
111 95 114 95 3 0 53 -43 112 -96 96 -84 128 -103 128 -74 0 8 -234 220 -242
220 -2 0 -56 -47 -120 -103z"/>
<path d="M850 2400 l0 -190 35 0 34 0 3 88 3 87 85 0 85 0 3 -87 3 -88 34 0
35 0 0 190 0 190 -35 0 -34 0 -3 -72 -3 -73 -85 0 -85 0 -3 73 -3 72 -34 0
-35 0 0 -190z"/>
<path d="M2910 2400 l0 -190 35 0 34 0 3 88 3 87 85 0 85 0 3 -87 3 -88 34 0
35 0 0 190 0 190 -35 0 -34 0 -3 -72 -3 -73 -85 0 -85 0 -3 73 -3 72 -34 0
-35 0 0 -190z"/>
<path d="M412 2479 l-82 -71 0 -114 0 -114 55 0 55 0 0 50 0 50 60 0 60 0 0
-50 0 -50 55 0 55 0 0 114 0 114 -80 68 c-44 38 -84 70 -88 72 -5 1 -45 -30
-90 -69z"/>
<path d="M1323 2486 c-96 -44 -98 -215 -3 -263 34 -17 105 -16 140 2 72 37 87
166 27 231 -28 31 -41 37 -83 40 -30 3 -62 -1 -81 -10z m111 -61 c42 -42 23
-146 -30 -159 -45 -12 -78 20 -82 78 -4 64 17 96 63 96 18 0 40 -7 49 -15z"/>
<path d="M1691 2474 c-30 -25 -31 -25 -31 -5 0 17 -6 21 -30 21 l-30 0 0 -140
0 -140 29 0 29 0 4 96 c4 87 6 99 28 116 15 12 32 17 47 13 18 -4 24 0 29 19
13 52 -26 62 -75 20z"/>
<path d="M2293 2486 c-96 -44 -98 -215 -3 -263 34 -17 105 -16 140 2 72 37 87
166 27 231 -28 31 -41 37 -83 40 -30 3 -62 -1 -81 -10z m111 -61 c42 -42 23
-146 -30 -159 -45 -12 -78 20 -82 78 -4 64 17 96 63 96 18 0 40 -7 49 -15z"/>
<path d="M2661 2474 c-30 -25 -31 -25 -31 -5 0 17 -6 21 -30 21 l-30 0 0 -140
0 -140 30 0 30 0 0 79 c0 115 17 151 71 151 43 0 49 -16 49 -127 l0 -103 35 0
35 0 0 104 c0 56 -5 117 -10 133 -20 56 -98 70 -149 27z"/>
<path d="M3383 2486 c-96 -44 -98 -215 -3 -263 34 -17 105 -16 140 2 72 37 87
166 27 231 -28 31 -41 37 -83 40 -30 3 -62 -1 -81 -10z m111 -61 c42 -42 23
-146 -30 -159 -45 -12 -78 20 -82 78 -4 64 17 96 63 96 18 0 40 -7 49 -15z"/>
<path d="M3763 2488 c-13 -6 -23 -15 -23 -20 0 -4 -4 -8 -10 -8 -5 0 -10 7
-10 15 0 10 -10 15 -30 15 l-30 0 0 -140 0 -140 30 0 30 0 0 88 c0 107 13 136
59 140 20 2 37 -2 42 -10 5 -7 9 -59 9 -115 l0 -103 35 0 35 0 0 99 c0 113 10
134 64 129 l31 -3 3 -112 3 -113 35 0 36 0 -4 126 c-3 118 -4 127 -27 145 -33
27 -83 24 -120 -6 -24 -21 -31 -23 -38 -12 -20 34 -77 46 -120 25z"/>
<path d="M4213 2485 c-52 -22 -75 -68 -71 -143 4 -55 8 -67 36 -94 26 -27 40
-32 89 -35 46 -3 65 0 91 16 37 24 40 41 12 59 -17 10 -23 10 -36 -3 -39 -39
-114 -19 -122 34 -3 20 0 21 92 21 l96 0 0 30 c0 102 -90 157 -187 115z"/>
<path d="M4510 2493 c-31 -11 -60 -47 -60 -74 0 -40 28 -67 90 -87 43 -13 56
-22 58 -39 5 -32 -39 -41 -87 -18 -20 9 -38 18 -40 19 -2 0 -10 -9 -18 -21
-14 -21 -13 -23 19 -43 47 -29 128 -28 162 3 62 53 35 126 -53 147 -59 14 -80
33 -61 55 15 18 40 19 75 3 22 -10 29 -9 46 9 l20 20 -34 17 c-34 16 -87 20
-117 9z"/>
<path d="M1820 2350 l0 -140 35 0 35 0 0 140 0 140 -35 0 -35 0 0 -140z"/>
<path d="M1960 2465 c0 -23 3 -24 65 -27 l64 -3 -69 -83 c-51 -62 -70 -92 -70
-113 l0 -29 110 0 110 0 0 25 c0 24 -2 25 -64 25 -36 0 -67 3 -70 8 -2 4 27
43 64 87 48 56 69 88 69 108 l1 27 -105 0 c-105 0 -105 0 -105 -25z"/>
</g>
</svg>
